<svg xmlns="http://www.w3.org/2000/svg" width="80" height="120" viewBox="0 0 80 120"><g fill="none" fill-rule="evenodd"><path stroke="#B9BDE7" stroke-width="2" d="M52 28l16-16m-16 0l16 16" stroke-linecap="square"/><path stroke="#514B82" stroke-width="2" d="M12 28l16-16m-16 0l16 16" stroke-linecap="square"/><path fill="#514B82" d="M22.197 55.354l5.657-5.657 2.12 7.778-7.777-2.12z"/><path stroke="#514B82" stroke-width="2" d="M26.503 53.78C24.865 52.065 22.557 51 20 51c-4.97 0-9 4.03-9 9s4.03 9 9 9 9-4.03 9-9"/><path fill="#B9BDE7" d="M62.197 55.354l5.657-5.657 2.12 7.778-7.777-2.12z"/><path stroke="#B9BDE7" stroke-width="2" d="M66.503 53.78C64.865 52.065 62.557 51 60 51c-4.97 0-9 4.03-9 9s4.03 9 9 9 9-4.03 9-9"/><path fill="#B9BDE7" stroke="#FFF" stroke-width="2" d="M20 94l12 8-12 8-12-8 12-8z"/><path fill="#B9BDE7" stroke="#FFF" stroke-width="2" d="M20 90l12 8-12 8-12-8 12-8z"/><path fill="#514B82" stroke="#FFF" stroke-width="2" d="M60 94l12 8-12 8-12-8 12-8z"/><path fill="#514B82" stroke="#FFF" stroke-width="2" d="M60 90l12 8-12 8-12-8 12-8z"/></g></svg>